<svg xmlns="http://www.w3.org/2000/svg" viewBox="0 0 290 64" fill="none">
  <!-- ExploreBharat Pin Mark Compact -->
  <g transform="translate(6, 4) scale(0.55)">
    <!-- Main Pin Body -->
    <path d="M 40 102 C 38 97 8 62 8 40 C 8 22.3 22.3 8 40 8 C 42 8 44 8.2 46 8.6 L 46 17 C 44 16.7 42 16.5 40 16.5 C 27 16.5 16.5 27 16.5 40 C 16.5 56.5 38 86 40 91 C 42 86 63.5 56.5 63.5 40 C 63.5 38 63.3 36 63 34 L 71.4 34 C 71.8 36 72 38 72 40 C 72 62 42 97 40 102 Z" fill="#132238"/>
    <!-- Top-Right Vibrant Orange Arc -->
    <path d="M 49 8.8 C 61.8 11.8 71.8 21.8 74.8 34.6 L 66.5 36.5 C 64.2 26.8 56.8 19.4 47.1 17.1 Z" fill="#F58220"/>
    <!-- Inner Compass Dial White Disk -->
    <circle cx="40" cy="40" r="23.5" fill="#FFFFFF" stroke="#132238" stroke-width="2.5"/>
    <line x1="40" y1="13.5" x2="40" y2="19.5" stroke="#132238" stroke-width="2.5" stroke-linecap="round"/>
    <line x1="40" y1="60.5" x2="40" y2="66.5" stroke="#132238" stroke-width="2.5" stroke-linecap="round"/>
    <line x1="13.5" y1="40" x2="19.5" y2="40" stroke="#132238" stroke-width="2.5" stroke-linecap="round"/>
    <line x1="60.5" y1="40" x2="66.5" y2="40" stroke="#132238" stroke-width="2.5" stroke-linecap="round"/>
    <path d="M 38 63.5 C 38 56 46 54 44 47 C 42 41 33 40 37 32" stroke="#132238" stroke-width="3" stroke-linecap="round" fill="none"/>
    <polygon points="40,37 54,26 43,40" fill="#F58220"/>
    <polygon points="40,37 43,40 37,42" fill="#132238"/>
  </g>

  <!-- Wordmark: ExploreBharat Compact -->
  <text x="64" y="42" font-family="'Inter', -apple-system, BlinkMacSystemFont, sans-serif" font-size="32" font-weight="800" fill="#132238" letter-spacing="-0.02em">
    Explore<tspan font-weight="900">Bharat</tspan>
  </text>
</svg>
